# xmcd
#
# Track frame offsets:
#	150
#	16601
#	34875
#	52753
#	69270
#	83187
#	102643
#	120013
#	143924
#	161264
#	175988
#	194138
#
# Disc length: 2764 seconds
#
# Revision: 1
# Processed by: cddbd v1.5.2PL0 Copyright (c) Steve Scherf et al.
# Submitted via: audiograbber 1.83.01
#
DISCID=930aca0c
DTITLE=Gary Jeffries - Middle Class Man
DYEAR=2011
DGENRE=Southern Rock
TTITLE0=Free
TTITLE1=Heaven winds blow
TTITLE2=Middle class man
TTITLE3=Ash top ashes
TTITLE4=Know ya too well
TTITLE5=Blood on the highway
TTITLE6=Flowers on my grave
TTITLE7=Mississippi girl
TTITLE8=Free my soul
TTITLE9=Bad moon rising
TTITLE10=Southern pride
TTITLE11=Free in heaven
EXTD=
EXTT0=
EXTT1=
EXTT2=
EXTT3=
EXTT4=
EXTT5=
EXTT6=
EXTT7=
EXTT8=
EXTT9=John Fogerty
EXTT10=
EXTT11=
PLAYORDER=
